# xmcd CD database file
#
# Track frame offsets:
#	150
#	12562
#	22948
#	32833
#	41134
#	51333
#	60849
#	74633
#	86406
#	98716
#	111329
#	123687
#	134285
#	151273
#	169879
#	181694
#	199878
#	214655
#	231726
#
# Disc length: 3273 seconds
#
# Revision: 1
# Processed by: cddbd v1.5.2PL0 Copyright (c) Steve Scherf et al.
# Submitted via: CDex 1.70beta2
#
DISCID=100cc713
DTITLE=Johnny Cash - The Number Ones
DYEAR=2012
DGENRE=Country
TTITLE0=I Walk The Line
TTITLE1=There You Go
TTITLE2=Ballad of A Teenage Queen
TTITLE3=Guess Things Happen That Way
TTITLE4=The Ways of A Woman In Love
TTITLE5=What Do I Care
TTITLE6=Don't Take Your Guns To Town
TTITLE7=Ring of Fire
TTITLE8=Understand Your Man
TTITLE9=The One On The Right Is The One On The Left
TTITLE10=Folsom Prison Blues (live)
TTITLE11=Daddy Sang Bass
TTITLE12=A Boy Named Sue (live)
TTITLE13=Sunday Mornin' Comin' Down (live)
TTITLE14=Flesh And Blood
TTITLE15=One Piece At A Time
TTITLE16=There Ain't No Good Chain Gang
TTITLE17=(Ghost) Riders In The Sky
TTITLE18=Highwayman
EXTD=YEAR: 2012
EXTT0=
EXTT1=
EXTT2=
EXTT3=
EXTT4=
EXTT5=
EXTT6=
EXTT7=
EXTT8=
EXTT9=
EXTT10=
EXTT11=
EXTT12=
EXTT13=
EXTT14=
EXTT15=
EXTT16=
EXTT17=
EXTT18=
PLAYORDER=
